<?xml version="1.0" encoding="UTF-8"?>
<svg id="Layer_1" data-name="Layer 1" xmlns="http://www.w3.org/2000/svg" viewBox="0 0 1019.75 83.49">
  <defs>
    <style>
      .cls-1 {
        fill: #fff;
      }
    </style>
  </defs>
  <path class="cls-1" d="M100.24,25.69c1.07,4.85,1.22,10.01.44,15.48-.79,5.55-2.42,10.75-4.88,15.59-2.47,4.92-5.67,9.3-9.6,13.12-3.92,3.83-8.46,6.83-13.59,9.01-5.14,2.18-10.56,3.27-16.27,3.26l-56.33-.08L11.73,0l56.33.08c5.71,0,10.82,1.11,15.33,3.31,4.51,2.2,8.22,5.25,11.12,9.16,2.75,3.84,4.66,8.22,5.72,13.15ZM73.4,50.52c1.76-2.73,2.89-5.86,3.39-9.38.5-3.52.27-6.65-.71-9.39-.76-2.58-2.11-4.62-4.07-6.11-1.9-1.33-4.34-2-7.31-2l-32.33-.04-4.99,34.95,32.33.04c2.97,0,5.57-.7,7.78-2.1,2.46-1.48,4.44-3.47,5.92-5.97Z"/>
  <path class="cls-1" d="M204.58,25.84c1.07,4.85,1.22,10.01.44,15.48s-2.42,10.75-4.88,15.59c-2.55,4.92-5.75,9.3-9.6,13.12-4.01,3.83-8.54,6.83-13.59,9.01-5.14,2.18-10.56,3.27-16.27,3.26l-22.8-.03c-5.79,0-10.94-1.11-15.45-3.31-4.43-2.19-8.1-5.21-11.01-9.05-2.83-3.83-4.78-8.22-5.84-13.15-1.08-4.85-1.22-10.05-.42-15.6s2.4-10.63,4.87-15.48c2.47-4.92,5.67-9.3,9.6-13.12,4.01-3.9,8.55-6.95,13.61-9.13,5.14-2.18,10.6-3.27,16.39-3.26l22.8.03c5.71,0,10.82,1.11,15.33,3.31,4.43,2.2,8.1,5.25,11,9.16,2.83,3.84,4.78,8.22,5.84,13.15ZM177.75,50.67c1.68-2.73,2.77-5.86,3.27-9.38s.3-6.65-.59-9.39c-.84-2.58-2.24-4.62-4.19-6.11-1.82-1.33-4.22-2-7.19-2l-22.8-.03c-3.06,0-5.69.66-7.88,1.98-2.31,1.48-4.28,3.51-5.94,6.09-1.69,2.81-2.78,5.94-3.27,9.38-.49,3.44-.3,6.57.59,9.38.93,2.51,2.37,4.5,4.33,5.99,1.81,1.41,4.2,2.12,7.18,2.12l22.8.03c2.97,0,5.57-.7,7.78-2.1,2.38-1.48,4.36-3.47,5.92-5.97Z"/>
  <path class="cls-1" d="M238.3,29.64l-7.54,52.77-24.01-.03L218.49.29l24.01.03,34.31,52.83L284.35.38l24.01.03-11.73,82.09-24.01-.03-15.4-22.15-18.91-30.68Z"/>
  <path class="cls-1" d="M630.94,30.18l-7.54,52.77-24.01-.03L611.13.83l24.01.03,34.31,52.83,7.54-52.77,24.01.03-11.73,82.09-24.01-.03-15.4-22.15-18.91-30.68Z"/>
  <path class="cls-1" d="M343.42,26.03c-2.31,1.48-4.28,3.51-5.94,6.09-1.69,2.81-2.78,5.94-3.27,9.38s-.29,6.53.61,9.27c.92,2.58,2.36,4.62,4.31,6.11,1.81,1.41,4.2,2.12,7.18,2.12l26.9.04.82-5.75-26.78-.04,3.35-23.45,51.03.07-7.54,52.77-51.15-.07c-5.79,0-10.94-1.11-15.45-3.31-4.43-2.19-8.1-5.21-11.01-9.05-2.83-3.83-4.78-8.22-5.84-13.15-1.08-4.85-1.22-10.05-.42-15.6s2.4-10.63,4.87-15.48c2.47-4.92,5.67-9.3,9.6-13.12,4.01-3.9,8.55-6.95,13.61-9.13,5.14-2.18,10.6-3.27,16.39-3.26l51.15.07-3.37,23.57-51.15-.07c-3.06,0-5.69.66-7.88,1.98Z"/>
  <path class="cls-1" d="M479.16.65l24,.03-11.73,82.09-24-.03,4.19-29.32-38.48-.05-4.19,29.32-24.01-.03L416.68.56l24.01.03-4.19,29.32,38.48.05,4.19-29.32Z"/>
  <path class="cls-1" d="M577.95.79l24.01.03-5.87,41.05c-.8,5.63-2.65,10.95-5.54,15.94-2.8,4.92-6.35,9.28-10.67,13.06-4.32,3.79-9.13,6.73-14.41,8.84-5.37,2.1-10.87,3.15-16.5,3.14h-7.24c-5.71-.02-10.95-1.08-15.71-3.2-4.69-2.12-8.64-5.09-11.87-8.93-3.15-3.84-5.46-8.22-6.93-13.15-1.39-4.93-1.68-10.21-.87-15.84l5.87-41.05,24.01.03-5.87,41.05c-.47,3.28-.13,6.22,1.03,8.8,1.23,2.66,3.06,4.77,5.49,6.34,2.35,1.57,5.09,2.35,8.23,2.36h7.24c3.14.01,6.1-.72,8.88-2.21,2.89-1.64,5.29-3.78,7.19-6.44,1.98-2.58,3.2-5.51,3.67-8.79l5.87-41.05Z"/>
  <path class="cls-1" d="M870.59,1.19l-54.78,35.47,40.15,46.62-33.17-.05-28-32.88-15.16,9.83-3.29,22.99-24.01-.03,11.73-82.09,24.01.03-4.48,31.31,48.74-31.25,38.24.05Z"/>
  <path class="cls-1" d="M886.84,83.32l-24.01-.03,11.73-82.09,24.01.03-11.73,82.09Z"/>
  <path class="cls-1" d="M947.03,83.41l-19.46-53.98-7.71,53.94-22.16-.03,11.73-82.09,30.48.04,17.14,52.81L990.59,1.36l29.16.04-11.73,82.09-22.54-.03,7.71-53.94-33.23,53.91h5.69"/>
</svg>